<mxfile host="65bd71144e">
    <diagram id="9kdgPQH1CmULbw3L3B88" name="Page-1">
        <mxGraphModel dx="564" dy="579" grid="1" gridSize="10" guides="1" tooltips="1" connect="1" arrows="1" fold="1" page="1" pageScale="1" pageWidth="827" pageHeight="1169" math="0" shadow="0">
            <root>
                <mxCell id="0"/>
                <mxCell id="1" parent="0"/>
                <mxCell id="15" value="" style="shape=flexArrow;endArrow=classic;html=1;fontFamily=Courier New;fontSize=40;fontColor=#666666;fillColor=#FF0000;strokeColor=none;endSize=10;" edge="1" parent="1">
                    <mxGeometry width="50" height="50" relative="1" as="geometry">
                        <mxPoint x="480" y="90" as="sourcePoint"/>
                        <mxPoint x="480" y="540" as="targetPoint"/>
                    </mxGeometry>
                </mxCell>
                <mxCell id="9" value="&lt;span style=&quot;font-family: &amp;#34;courier new&amp;#34;&quot;&gt;&lt;font style=&quot;font-size: 40px&quot;&gt;time_bomb(0)&lt;/font&gt;&lt;/span&gt;" style="rounded=1;whiteSpace=wrap;html=1;fontColor=#666666;strokeColor=#666666;fillColor=none;" vertex="1" parent="1">
                    <mxGeometry x="160" y="40" width="340" height="90" as="geometry"/>
                </mxCell>
                <mxCell id="10" value="&lt;span style=&quot;font-family: &amp;#34;courier new&amp;#34;&quot;&gt;&lt;font style=&quot;font-size: 40px&quot;&gt;time_bomb(1)&lt;/font&gt;&lt;/span&gt;" style="rounded=1;whiteSpace=wrap;html=1;fontColor=#666666;strokeColor=#666666;fillColor=none;" vertex="1" parent="1">
                    <mxGeometry x="160" y="130" width="340" height="90" as="geometry"/>
                </mxCell>
                <mxCell id="11" value="&lt;span style=&quot;font-family: &amp;#34;courier new&amp;#34;&quot;&gt;&lt;font style=&quot;font-size: 40px&quot;&gt;driver()&lt;/font&gt;&lt;/span&gt;" style="rounded=1;whiteSpace=wrap;html=1;fontColor=#666666;strokeColor=#666666;fillColor=none;" vertex="1" parent="1">
                    <mxGeometry x="160" y="220" width="340" height="90" as="geometry"/>
                </mxCell>
                <mxCell id="12" value="&lt;span style=&quot;font-family: &amp;#34;courier new&amp;#34;&quot;&gt;&lt;font style=&quot;font-size: 40px&quot;&gt;main()&lt;/font&gt;&lt;/span&gt;" style="rounded=1;whiteSpace=wrap;html=1;fontColor=#666666;strokeColor=#666666;fillColor=none;" vertex="1" parent="1">
                    <mxGeometry x="160" y="310" width="340" height="90" as="geometry"/>
                </mxCell>
                <mxCell id="13" value="&lt;span style=&quot;font-family: &amp;#34;courier new&amp;#34;&quot;&gt;&lt;font style=&quot;font-size: 40px&quot;&gt;python foo.py&lt;/font&gt;&lt;/span&gt;" style="rounded=1;whiteSpace=wrap;html=1;fontColor=#666666;strokeColor=#666666;fillColor=none;" vertex="1" parent="1">
                    <mxGeometry x="160" y="400" width="340" height="90" as="geometry"/>
                </mxCell>
                <mxCell id="14" value="&lt;span style=&quot;font-family: &amp;#34;courier new&amp;#34;&quot;&gt;&lt;font style=&quot;font-size: 40px&quot;&gt;bash $&lt;/font&gt;&lt;/span&gt;" style="rounded=1;whiteSpace=wrap;html=1;fontColor=#666666;strokeColor=#666666;fillColor=none;" vertex="1" parent="1">
                    <mxGeometry x="160" y="490" width="340" height="90" as="geometry"/>
                </mxCell>
            </root>
        </mxGraphModel>
    </diagram>
</mxfile>